<?xml version="1.0" encoding="UTF-8" standalone="no"?>
<!-- Generator: Adobe Illustrator 19.0.0, SVG Export Plug-In . SVG Version: 6.00 Build 0)  -->

<svg
   version="1.1"
   id="Layer_1"
   x="0px"
   y="0px"
   viewBox="0 0 512 512"
   style="enable-background:new 0 0 512 512;"
   xml:space="preserve"
   sodipodi:docname="bar-chart.svg"
   inkscape:version="1.1 (c68e22c387, 2021-05-23)"
   xmlns:inkscape="http://www.inkscape.org/namespaces/inkscape"
   xmlns:sodipodi="http://sodipodi.sourceforge.net/DTD/sodipodi-0.dtd"
   xmlns="http://www.w3.org/2000/svg"
   xmlns:svg="http://www.w3.org/2000/svg"><defs
   id="defs49">
	
	
	
</defs><sodipodi:namedview
   id="namedview47"
   pagecolor="#ffffff"
   bordercolor="#666666"
   borderopacity="1.0"
   inkscape:pageshadow="2"
   inkscape:pageopacity="0.0"
   inkscape:pagecheckerboard="0"
   showgrid="false"
   inkscape:zoom="0.46484375"
   inkscape:cx="119.39496"
   inkscape:cy="237.71429"
   inkscape:window-width="1366"
   inkscape:window-height="745"
   inkscape:window-x="-8"
   inkscape:window-y="-8"
   inkscape:window-maximized="1"
   inkscape:current-layer="Layer_1" />
<path
   style="fill:#227c70;fill-opacity:1"
   d="M329.554,501.801H183.016V40.824c0-16.913,13.711-30.625,30.625-30.625h85.289  c16.913,0,30.625,13.711,30.625,30.625v460.976H329.554z"
   id="path2" />
<path
   style="fill:#e6e2c3;fill-opacity:1"
   d="M446.716,501.801H300.177V163.658c0-16.913,13.712-30.625,30.625-30.625h85.289  c16.913,0,30.625,13.711,30.625,30.625V501.801z"
   id="path4" />
<path
   style="fill:#88a47c;fill-opacity:1"
   d="M211.823,501.801H65.284V290.802c0-16.913,13.711-30.625,30.625-30.625h85.289  c16.913,0,30.625,13.711,30.625,30.625V501.801z"
   id="path6" />
<path
   style="fill:#000000"
   d="m 490.068,512 c 5.632,0 10.199,-4.567 10.199,-10.199 0,-5.632 -4.567,-10.199 -10.199,-10.199 H 456.915 V 163.658 c 0,-22.511 -18.314,-40.824 -40.824,-40.824 H 339.753 V 40.824 C 339.753,18.314 321.439,0 298.929,0 H 213.64 C 191.129,0 172.816,18.314 172.816,40.824 V 249.977 H 95.909 c -22.511,0 -40.824,18.314 -40.824,40.823 V 491.601 H 21.932 c -5.632,0 -10.199,4.567 -10.199,10.199 0,5.632 4.567,10.2 10.199,10.2 z M 213.641,20.398 h 85.289 c 11.263,0 20.425,9.163 20.425,20.426 v 83.654 c -16.954,4.962 -29.377,20.643 -29.377,39.179 v 327.944 h -67.956 v -200.8 c 0,-18.329 -12.144,-33.874 -28.808,-39.017 V 40.824 c 0,-11.263 9.164,-20.426 20.427,-20.426 z M 75.483,491.602 v -200.8 c 0,-11.263 9.163,-20.425 20.426,-20.425 h 85.289 c 11.263,0 20.425,9.162 20.425,20.425 v 200.8 z m 234.893,0 V 163.658 c 0,-11.263 9.162,-20.426 20.425,-20.426 h 85.289 c 11.263,0 20.426,9.163 20.426,20.426 v 327.943 h -126.14 z"
   id="path8" /><path
   style="fill:#000000"
   d="m 408.387,257.534 c -5.632,0 -10.199,4.567 -10.199,10.199 v 193.838 c 0,5.632 4.567,10.199 10.199,10.199 5.632,0 10.199,-4.567 10.199,-10.199 V 267.733 c 10e-4,-5.633 -4.566,-10.199 -10.199,-10.199 z"
   id="path10" /><path
   style="fill:#000000"
   d="m 408.387,211.208 c -5.632,0 -10.199,4.567 -10.199,10.199 v 6.096 c 0,5.632 4.567,10.199 10.199,10.199 5.632,0 10.199,-4.567 10.199,-10.199 v -6.096 c 10e-4,-5.632 -4.566,-10.199 -10.199,-10.199 z"
   id="path12" />
<g
   id="g16">
</g>
<g
   id="g18">
</g>
<g
   id="g20">
</g>
<g
   id="g22">
</g>
<g
   id="g24">
</g>
<g
   id="g26">
</g>
<g
   id="g28">
</g>
<g
   id="g30">
</g>
<g
   id="g32">
</g>
<g
   id="g34">
</g>
<g
   id="g36">
</g>
<g
   id="g38">
</g>
<g
   id="g40">
</g>
<g
   id="g42">
</g>
<g
   id="g44">
</g>
</svg>
