<?xml version="1.0" encoding="UTF-8" standalone="no"?>
<!-- Created with Inkscape (http://www.inkscape.org/) -->

<svg
   width="11.308235mm"
   height="13.421764mm"
   viewBox="0 0 11.308235 13.421764"
   version="1.1"
   id="svg7288"
   inkscape:version="1.1 (c68e22c387, 2021-05-23)"
   sodipodi:docname="age_country.svg"
   xmlns:inkscape="http://www.inkscape.org/namespaces/inkscape"
   xmlns:sodipodi="http://sodipodi.sourceforge.net/DTD/sodipodi-0.dtd"
   xmlns="http://www.w3.org/2000/svg"
   xmlns:svg="http://www.w3.org/2000/svg">
  <sodipodi:namedview
     id="namedview7290"
     pagecolor="#ffffff"
     bordercolor="#666666"
     borderopacity="1.0"
     inkscape:pageshadow="2"
     inkscape:pageopacity="0.0"
     inkscape:pagecheckerboard="0"
     inkscape:document-units="mm"
     showgrid="false"
     inkscape:zoom="0.42404602"
     inkscape:cx="-235.82346"
     inkscape:cy="15.328525"
     inkscape:window-width="1366"
     inkscape:window-height="745"
     inkscape:window-x="-8"
     inkscape:window-y="-8"
     inkscape:window-maximized="1"
     inkscape:current-layer="layer1" />
  <defs
     id="defs7285" />
  <g
     inkscape:label="Capa 1"
     inkscape:groupmode="layer"
     id="layer1"
     transform="translate(-167.17992,-144.90887)">
    <g
       id="g42273"
       transform="matrix(0.95634018,0,0,0.95634018,505.32984,44.156326)">
      <g
         id="g42263"
         transform="translate(106.55761,-2.5427033)">
        <circle
           style="fill:#e7f6f2;fill-opacity:1;stroke:#ffffff;stroke-width:0.857804;stroke-linecap:square"
           id="circle42203"
           cx="-455.48962"
           cy="112.55038"
           r="4.2265739" />
        <g
           id="g42261"
           transform="matrix(0.15077106,0,0,0.15077106,-460.31429,107.72571)">
          <path
             d="M 62,32 H 2 c 0,5.5 1.5,10.6 4,15 h 52 c 2.5,-4.4 4,-9.5 4,-15"
             fill="#2a5f9e"
             id="path42205" />
          <path
             d="M 32,2 C 15.4,2 2,15.4 2,32 H 62 C 62,15.4 48.6,2 32,2 Z"
             fill="#ffe62e"
             id="path42207" />
          <path
             d="M 32,62 C 43.1,62 52.8,56 58,47 H 6 c 5.2,9 14.9,15 26,15"
             fill="#ed4c5c"
             id="path42209" />
          <path
             d="m 25.383,29.553 0.802,0.82 0.344,-0.937 0.115,-0.586 c -0.115,-1.64 0,-3.28 0,-3.28 l 0.23,0.235 -0.918,-0.937 -0.573,-0.585 v 5.27"
             fill="#034ea2"
             id="path42211" />
          <path
             d="m 26.644,28.85 0.802,-2.46 -0.802,-0.82 v 3.28"
             fill="#ed1c24"
             id="path42213" />
          <path
             d="m 25.383,24.283 0.573,0.585 -2.751,-2.81 C 23.09,21.94 23.09,24.517 23.09,27.328 l 2.293,2.342 v -5.387"
             fill="#ffdd00"
             id="path42215" />
          <path
             d="M 26.185,39.508 C 24.237,38.337 24.007,34.706 24.007,34.12 v -6.324 l 0.574,0.586 -2.752,-2.811 c -0.229,-0.234 0,7.612 0,11.009 0,1.64 1.032,7.378 6.764,4.45 0,0 2.866,-1.054 3.783,-2.342 h -0.573 c -0.115,0.117 -0.23,0.117 -0.344,0.117 -3.325,2.342 -5.274,0.703 -5.274,0.703"
             fill="#ffdd00"
             id="path42217" />
          <path
             d="m 24.007,34.12 c 0,0.469 0.23,4.1 2.064,5.27 0,0 1.949,1.64 5.388,-0.585 -1.032,0.469 -1.834,0.469 -2.408,0.351 -1.605,-0.468 -3.324,-2.342 -3.553,-4.333 -0.23,-1.99 -0.23,-5.739 -0.23,-5.739 l 0.23,0.235 -0.917,-0.937 -0.574,-0.469 v 6.207"
             fill="#034ea2"
             id="path42219" />
          <path
             d="m 26.415,31.661 v -1.523 c -0.344,-0.35 0.114,0.118 -0.803,-0.82 l -0.229,-0.234 v 0.118 c 0,0.468 0,3.864 0.23,5.621 0.229,1.991 1.948,3.865 3.553,4.333 0.573,0.118 1.376,0.118 2.407,-0.35 0.115,0 0.115,-0.118 0.23,-0.118 -3.096,-0.351 -5.044,-3.162 -5.388,-7.027"
             fill="#ed1c24"
             id="path42221" />
          <path
             d="m 37.878,39.625 c 1.835,-1.171 2.179,-4.802 2.064,-5.27 V 28.03 l -0.573,0.586 2.751,-2.81 c 0.23,-0.235 0,7.612 0,11.008 0,1.64 -1.032,7.378 -6.764,4.45 0,0 -2.866,-1.053 -3.783,-2.342 h 0.574 c 0.114,0 0.229,0.117 0.229,0.117 3.554,2.226 5.502,0.586 5.502,0.586"
             fill="#ffdd00"
             id="path42223" />
          <path
             d="m 39.942,34.238 c 0,0.468 -0.23,4.099 -2.064,5.27 0,0 -1.948,1.64 -5.388,-0.586 1.032,0.469 1.835,0.469 2.408,0.352 1.605,-0.469 3.324,-2.343 3.554,-4.334 0.229,-1.99 0.229,-5.738 0.229,-5.738 l -0.23,0.234 0.918,-0.937 0.573,-0.586 v 6.325"
             fill="#034ea2"
             id="path42225" />
          <path
             d="m 37.65,31.778 v -1.522 l 0.802,-0.82 0.229,-0.234 v 0.117 c 0,0.468 0,3.864 -0.23,5.621 -0.229,1.991 -1.834,3.865 -3.553,4.45 -0.573,0.118 -1.376,0.118 -2.408,-0.35 -0.114,0 -0.114,-0.118 -0.229,-0.118 2.98,-0.468 5.044,-3.279 5.388,-7.144"
             fill="#ed1c24"
             id="path42227" />
          <path
             d="m 26.3,31 c 0,4.1 2.6,7.4 5.7,7.4 3.1,0 5.7,-3.3 5.7,-7.4 0,-4.1 -2.6,-7.4 -5.7,-7.4 -3.1,0 -5.7,3.4 -5.7,7.4"
             fill="#8cddea"
             id="path42229" />
          <path
             d="m 26.3,31.3 c 0,4.1 2.6,7.4 5.7,7.4 3.2,0 5.7,-3.3 5.7,-7.4 H 26.3"
             fill="#6dd337"
             id="path42231" />
          <path
             d="m 26.5,31.5 10.8,0.2 0.1,-0.8 c 0,-0.1 0.2,-0.2 -0.1,-0.2 -1.2,-0.1 -0.7,-0.2 -1.4,-0.2 -0.2,0 -4.8,-1.1 -5.2,-1.1 -0.4,-0.1 -4,0.5 -4,0.5 l -0.2,1.6"
             fill="#557176"
             id="path42233" />
          <path
             d="m 26.4,29.6 1.7,0.7 c 0,0 2.2,-0.4 2.4,-0.3 0.2,0.1 2.1,0.4 2.2,0.4 h 2.9 -0.1 c -0.2,-0.1 -2.4,-0.7 -2.6,-0.8 -0.1,-0.1 -1.8,-0.7 -1.9,-0.9 -0.2,-0.2 -1.4,-0.9 -1.6,-0.9 -0.2,-0.1 -3,1.8 -3,1.8"
             fill="#ffffff"
             id="path42235" />
          <path
             d="m 34.4,23.8 c 0,0 -1.1,-0.7 -2.5,-0.7 -1.1,0 -2.2,0.6 -2.2,0.6 -1.2,0.7 -2.2,2 -2.8,3.6 -0.4,1.1 -0.7,2.4 -0.7,3.7 0,3.9 2.1,6.9 4.8,7.7 0,0 0.4,0.2 0.9,0.2 0.5,0 1,-0.1 1,-0.1 2.7,-0.7 4.9,-3.8 4.9,-7.7 0,-5.1 -3.9,-7.7 -3.4,-7.3 M 33,38.3 c 0,0 -0.5,0.1 -1,0.1 -0.5,0 -1,-0.1 -1,-0.1 -2.4,-0.7 -4.3,-3.6 -4.3,-7.1 0,-1.2 0.3,-2.5 0.7,-3.5 0.6,-1.4 1.5,-2.6 2.6,-3.2 0,0 1.1,-0.7 2,-0.7 1.3,0 2.3,0.7 2.3,0.7 1.8,1.1 3.1,3.7 3.1,6.6 -0.1,3.6 -2,6.6 -4.4,7.2"
             fill="#b1babf"
             id="path42237" />
          <path
             d="m 28.6,31.2 1.7,2.3 -2.6,1.5 c 0,0 0.2,0.6 0.7,1.3 0.5,0.6 1.7,1.9 2.8,2 1.2,0.1 2,0.1 2.7,-0.3 0.6,-0.4 1.5,-0.9 2.1,-1.9 0.6,-0.9 0.6,-1.1 0.6,-1.1 0,0 -3.8,-0.8 -3.9,-0.8 -0.1,-0.1 -3.7,-2.9 -3.8,-3 -0.1,-0.1 0.8,-1.2 0.8,-1.2 z"
             fill="#034ea2"
             id="path42239" />
          <path
             fill="#ed1c24"
             d="M 31.1,39.8 H 33 v 4.9 h -1.9 z"
             id="path42241" />
          <g
             fill="#034ea2"
             id="g42247">
            <path
               d="m 29.6,40.2 h 1.9 v 4.9 h -1.9 z"
               id="path42243" />
            <path
               d="m 32.5,40.2 h 1.9 v 4.9 h -1.9 z"
               id="path42245" />
          </g>
          <g
             fill="#ffdd00"
             id="g42253">
            <path
               d="m 29.2,40.2 h 1.2 v 6.2 h -1.2 z"
               id="path42249" />
            <path
               d="m 33.6,40.2 h 1.2 v 6.2 h -1.2 z"
               id="path42251" />
          </g>
          <path
             fill="#ffffff"
             d="m 27.5,38.1 h 9 v 2.4 h -9 z"
             id="path42255" />
          <path
             d="m 37.6,18.5 c -1.8,0 -3.7,2 -5.6,2 -1.9,0 -3.8,-2 -5.6,-2 -1.7,0 -8.4,2 -8.4,2 9.3,0 14,5 14,5 0,0 4.7,-5 14,-5 0,0 -6.7,-2 -8.4,-2"
             fill="#594640"
             id="path42257" />
          <circle
             cx="32"
             cy="19.700001"
             r="1.2"
             fill="#f9f9f9"
             id="circle42259" />
        </g>
      </g>
      <g
         id="g42271"
         transform="translate(1.190625,-19.711458)">
        <circle
           style="fill:#e7f6f2;fill-opacity:1;stroke:#ffffff;stroke-width:0.857804;stroke-linecap:square"
           id="circle42265"
           cx="-347.6091"
           cy="134.44269"
           r="4.2265739" />
        <text
           xml:space="preserve"
           style="font-style:normal;font-variant:normal;font-weight:normal;font-stretch:normal;font-size:4.93889px;font-family:'Josefin Sans';-inkscape-font-specification:'Josefin Sans, Normal';font-variant-ligatures:normal;font-variant-caps:normal;font-variant-numeric:normal;font-variant-east-asian:normal;fill:#2c3333;fill-opacity:1;stroke:none;stroke-width:0.312368;stroke-linecap:square;stroke-dasharray:none;stroke-opacity:1"
           x="-350.39639"
           y="136.10973"
           id="text42269"><tspan
             sodipodi:role="line"
             id="tspan42267"
             style="font-style:normal;font-variant:normal;font-weight:normal;font-stretch:normal;font-size:4.93889px;font-family:'Josefin Sans';-inkscape-font-specification:'Josefin Sans, Normal';font-variant-ligatures:normal;font-variant-caps:normal;font-variant-numeric:normal;font-variant-east-asian:normal;stroke:none;stroke-width:0.312368;stroke-opacity:1"
             x="-350.39639"
             y="136.10973">22</tspan></text>
      </g>
    </g>
  </g>
</svg>
