<?xml version="1.0" encoding="UTF-8" standalone="no"?>
<!-- Created with Inkscape (http://www.inkscape.org/) -->

<svg
   width="6.8841391mm"
   height="7.7462029mm"
   viewBox="0 0 6.8841391 7.7462029"
   version="1.1"
   id="svg7288"
   inkscape:version="1.1 (c68e22c387, 2021-05-23)"
   sodipodi:docname="english.svg"
   xmlns:inkscape="http://www.inkscape.org/namespaces/inkscape"
   xmlns:sodipodi="http://sodipodi.sourceforge.net/DTD/sodipodi-0.dtd"
   xmlns="http://www.w3.org/2000/svg"
   xmlns:svg="http://www.w3.org/2000/svg">
  <sodipodi:namedview
     id="namedview7290"
     pagecolor="#ffffff"
     bordercolor="#666666"
     borderopacity="1.0"
     inkscape:pageshadow="2"
     inkscape:pageopacity="0.0"
     inkscape:pagecheckerboard="0"
     inkscape:document-units="mm"
     showgrid="false"
     inkscape:zoom="0.42404602"
     inkscape:cx="14.149408"
     inkscape:cy="15.328525"
     inkscape:window-width="1366"
     inkscape:window-height="745"
     inkscape:window-x="-8"
     inkscape:window-y="-8"
     inkscape:window-maximized="1"
     inkscape:current-layer="layer1" />
  <defs
     id="defs7285" />
  <g
     inkscape:label="Capa 1"
     inkscape:groupmode="layer"
     id="layer1"
     transform="translate(-101.38146,-144.93887)">
    <g
       id="g42383"
       transform="matrix(0.01512941,0,0,0.01512941,100.95042,144.93888)"
       style="stroke-width:19.318">
      <path
         style="fill:#103b9b;stroke-width:19.318"
         d="m 473.12,371.858 c 0.176,-0.611 0.338,-1.229 0.479,-1.851 0.047,-0.201 0.089,-0.401 0.131,-0.603 0.113,-0.541 0.213,-1.085 0.3,-1.634 0.037,-0.236 0.076,-0.473 0.11,-0.711 0.076,-0.545 0.131,-1.094 0.18,-1.643 0.021,-0.225 0.047,-0.447 0.063,-0.674 0.052,-0.767 0.084,-1.537 0.083,-2.314 v 0 0 -0.006 l -0.006,-40.908 v -0.001 l -0.005,-26.206 v -0.002 l -10e-4,-4.214 -0.004,-25.576 v 0 l -0.008,-48.827 -0.005,-26.206 -0.006,-40.988 c -10e-4,-2.996 -0.409,-5.93 -1.161,-8.75 -0.405,-1.517 -0.915,-2.997 -1.521,-4.435 -2.478,-5.877 -6.574,-11.017 -11.925,-14.741 -0.784,-0.545 -1.584,-1.071 -2.421,-1.554 L 434.528,106.813 413.113,94.454 395.872,84.504 329.941,46.454 304.22,31.61 284.93,20.477 272.976,13.579 C 262.443,7.5 249.465,7.502 238.933,13.585 l -11.873,6.857 -19.29,11.141 -25.719,14.855 v 0 L 116.134,84.514 87.243,101.2 65.834,113.566 54.551,120.084 c -0.813,0.469 -1.59,0.979 -2.353,1.507 -3.272,2.267 -6.073,5.068 -8.332,8.237 -1.517,2.128 -2.781,4.423 -3.775,6.842 -1.654,4.032 -2.557,8.399 -2.557,12.9 l 0.007,40.915 0.005,26.206 0.012,73.743 10e-4,4.011 v 0.849 0.002 0.013 0 0.005 0 l 0.005,26.201 v 0 1.864 l 0.002,12.618 0.004,26.499 v 0.006 0 c 10e-4,0.773 0.033,1.54 0.084,2.304 0.016,0.224 0.042,0.446 0.061,0.669 0.049,0.55 0.106,1.096 0.18,1.638 0.033,0.236 0.072,0.471 0.11,0.706 0.086,0.546 0.184,1.087 0.297,1.626 0.043,0.201 0.086,0.403 0.131,0.603 0.14,0.615 0.298,1.223 0.471,1.825 0.033,0.113 0.061,0.227 0.095,0.34 0.909,3.043 2.239,5.93 3.941,8.59 0,0 0,10e-4 0,0.002 l 0.002,10e-4 c 1.172,1.832 2.517,3.552 4.027,5.137 0.049,0.052 0.098,0.106 0.147,0.158 0.71,0.735 1.454,1.441 2.233,2.112 0.125,0.11 0.256,0.215 0.382,0.322 0.786,0.661 1.594,1.3 2.444,1.89 0.784,0.545 1.584,1.071 2.421,1.554 l 22.553,13.016 21.415,12.36 17.562,10.136 91.65,52.894 19.29,11.133 11.954,6.898 c 10.533,6.079 23.511,6.077 34.043,-0.006 l 11.873,-6.857 19.29,-11.141 25.719,-14.854 55.558,-32.088 10.363,-5.986 26.362,-15.226 21.409,-12.366 13.814,-7.979 c 0.813,-0.469 1.59,-0.979 2.352,-1.507 0.851,-0.59 1.66,-1.226 2.446,-1.883 0.129,-0.107 0.259,-0.213 0.386,-0.322 0.779,-0.673 1.526,-1.376 2.236,-2.11 0.046,-0.048 0.09,-0.098 0.136,-0.146 3.725,-3.892 6.475,-8.609 8.02,-13.766 0.035,-0.106 0.061,-0.214 0.093,-0.321 z"
         id="path42339" />
      <path
         style="fill:#ffffff;stroke-width:19.318"
         d="m 473.271,140.745 c -0.405,-1.517 -0.915,-2.997 -1.52,-4.435 -2.479,-5.877 -6.575,-11.017 -11.926,-14.741 -0.784,-0.545 -1.584,-1.071 -2.421,-1.554 L 434.529,106.814 413.114,94.455 412.89,94.327 255.998,198.922 99.126,94.337 87.244,101.2 l -21.41,12.366 -11.283,6.518 c -0.813,0.469 -1.59,0.979 -2.353,1.507 -3.273,2.267 -6.073,5.068 -8.332,8.237 -1.517,2.128 -2.781,4.423 -3.775,6.842 -1.654,4.032 -2.557,8.399 -2.557,12.9 l 0.004,17.29 133.279,88.853 -133.25,88.833 0.002,17.952 v 0.006 0 c 10e-4,0.773 0.033,1.54 0.084,2.304 0.016,0.224 0.042,0.446 0.061,0.669 0.049,0.55 0.106,1.096 0.18,1.638 0.033,0.236 0.072,0.471 0.11,0.706 0.086,0.546 0.184,1.087 0.297,1.626 0.042,0.201 0.086,0.403 0.131,0.603 0.14,0.615 0.298,1.222 0.471,1.825 0.033,0.113 0.061,0.227 0.095,0.34 0.909,3.043 2.239,5.93 3.94,8.59 10e-4,0 10e-4,10e-4 10e-4,0.002 l 0.002,10e-4 c 1.172,1.833 2.517,3.552 4.027,5.137 0.049,0.052 0.098,0.106 0.147,0.158 0.71,0.735 1.454,1.441 2.233,2.112 0.125,0.11 0.256,0.215 0.382,0.322 0.786,0.661 1.594,1.3 2.444,1.89 0.784,0.545 1.584,1.071 2.421,1.554 l 22.553,13.016 21.415,12.36 0.082,0.047 L 256,312.502 l 157.337,104.891 8.89,-5.135 21.409,-12.366 13.814,-7.979 c 0.813,-0.469 1.59,-0.979 2.352,-1.507 0.852,-0.59 1.66,-1.226 2.446,-1.883 0.129,-0.107 0.259,-0.213 0.386,-0.322 0.779,-0.673 1.526,-1.376 2.236,-2.11 0.047,-0.048 0.09,-0.098 0.136,-0.146 3.725,-3.892 6.475,-8.609 8.02,-13.766 0.033,-0.106 0.06,-0.215 0.09,-0.322 0.176,-0.611 0.338,-1.229 0.479,-1.851 0.047,-0.201 0.089,-0.401 0.131,-0.603 0.113,-0.541 0.213,-1.085 0.3,-1.634 0.037,-0.236 0.076,-0.473 0.11,-0.711 0.076,-0.545 0.131,-1.094 0.18,-1.643 0.02,-0.225 0.046,-0.447 0.063,-0.674 0.052,-0.767 0.083,-1.537 0.083,-2.314 v 0 -0.006 L 474.46,344.562 341.18,255.71 474.43,166.877 474.428,149.495 c 0.003,-2.996 -0.404,-5.93 -1.157,-8.75 z"
         id="path42341" />
      <path
         style="fill:#ed1f34;stroke-width:19.318"
         d="m 462.249,388.524 c 0.129,-0.107 0.259,-0.213 0.386,-0.322 0.779,-0.673 1.526,-1.376 2.236,-2.11 0.047,-0.048 0.09,-0.098 0.136,-0.146 3.725,-3.892 6.475,-8.609 8.02,-13.766 0.033,-0.106 0.06,-0.215 0.09,-0.322 0.176,-0.611 0.338,-1.229 0.479,-1.851 0.047,-0.201 0.089,-0.401 0.131,-0.603 0.113,-0.541 0.213,-1.085 0.3,-1.634 0.037,-0.236 0.076,-0.473 0.11,-0.711 0.076,-0.545 0.131,-1.094 0.18,-1.643 0.02,-0.225 0.046,-0.447 0.063,-0.674 0.012,-0.182 0.011,-0.369 0.021,-0.552 L 284.065,236.999 458.492,120.714 c -0.364,-0.231 -0.714,-0.481 -1.089,-0.699 L 434.528,106.814 428.112,103.11 227.618,236.79 53.534,120.734 c -0.447,0.285 -0.904,0.556 -1.337,0.856 -3.273,2.267 -6.073,5.068 -8.332,8.237 -1.517,2.128 -2.781,4.423 -3.775,6.842 -1.467,3.577 -2.34,7.417 -2.52,11.381 L 227.303,274.843 53.068,390.999 c 0.504,0.333 1.001,0.676 1.529,0.981 l 22.553,13.016 6.278,3.623 200.968,-133.979 174.511,116.341 c 0.295,-0.195 0.606,-0.374 0.896,-0.575 0.852,-0.588 1.66,-1.224 2.446,-1.882 z"
         id="path42343" />
      <path
         d="m 457.45,391.914 -6.923,3.999 L 284.395,285.159 91.882,413.499 77.148,404.996 74.969,403.74 279.539,267.36 c 2.939,-1.959 6.768,-1.959 9.709,0 l 176.555,117.705 c -0.264,0.295 -0.522,0.596 -0.796,0.881 -0.046,0.048 -0.089,0.099 -0.136,0.146 -0.711,0.734 -1.458,1.437 -2.236,2.11 -0.127,0.108 -0.257,0.215 -0.386,0.322 -0.786,0.657 -1.594,1.294 -2.446,1.883 -0.763,0.528 -1.541,1.038 -2.353,1.507 z M 236.055,274.847 c 0.001,-2.924 -1.458,-5.654 -3.889,-7.279 L 39.338,138.705 c -1.169,3.452 -1.805,7.109 -1.805,10.864 l 0.002,8.981 174.007,116.284 -165.339,110.225 c 0.259,0.292 0.494,0.602 0.766,0.885 0.049,0.052 0.098,0.106 0.147,0.158 0.71,0.735 1.454,1.441 2.233,2.112 0.125,0.11 0.256,0.215 0.382,0.322 0.786,0.661 1.594,1.3 2.444,1.89 0.784,0.545 1.584,1.071 2.421,1.554 l 6.848,3.952 170.715,-113.809 c 2.431,-1.622 3.895,-4.352 3.896,-7.276 z m -8.437,-29.307 c 1.691,0 3.385,-0.489 4.853,-1.47 L 436.568,107.991 434.531,106.814 419.66,98.231 227.618,226.273 61.935,115.818 l -7.384,4.265 c -0.813,0.469 -1.59,0.979 -2.353,1.507 -2.097,1.453 -3.976,3.144 -5.666,4.991 L 222.764,244.07 c 1.469,0.98 3.161,1.47 4.854,1.47 z m 47.699,-8.545 c -0.001,2.924 1.458,5.656 3.889,7.281 l 193.383,129.228 c 0.152,-0.439 0.306,-0.878 0.439,-1.323 0.033,-0.106 0.06,-0.215 0.09,-0.322 0.176,-0.611 0.338,-1.229 0.479,-1.851 0.047,-0.201 0.089,-0.401 0.131,-0.603 0.113,-0.541 0.213,-1.085 0.3,-1.634 0.037,-0.236 0.076,-0.473 0.11,-0.711 0.076,-0.545 0.131,-1.094 0.18,-1.643 0.021,-0.225 0.046,-0.447 0.063,-0.674 0.052,-0.767 0.083,-1.537 0.083,-2.314 v 0 -0.006 L 474.463,353.708 299.827,237.008 465.5,126.56 c -1.688,-1.852 -3.583,-3.532 -5.677,-4.99 -0.784,-0.545 -1.584,-1.071 -2.421,-1.554 l -7.31,-4.218 -170.881,113.921 c -2.431,1.621 -3.893,4.352 -3.894,7.276 z"
         id="path42345"
         style="stroke-width:19.318" />
      <path
         style="fill:#ffffff;stroke-width:19.318"
         d="m 474.455,295.305 v -4.214 l -0.005,-25.576 -0.008,-48.827 -0.001,-8.229 H 303.252 V 31.05 L 284.935,20.478 272.981,13.58 C 262.448,7.501 249.47,7.503 238.938,13.586 l -11.873,6.857 -18.317,10.579 V 208.459 H 37.544 l 0.001,8.229 0.012,73.743 10e-4,4.011 v 0.849 0.002 0.013 0 0.005 0 l 10e-4,7.651 h 171.189 v 177.984 l 18.317,10.572 11.954,6.898 c 10.533,6.079 23.511,6.077 34.043,-0.006 l 11.873,-6.857 18.317,-10.579 V 302.963 h 171.205 l -10e-4,-7.656 v -0.002 z"
         id="path42347" />
      <path
         style="fill:#ed1f34;stroke-width:19.318"
         d="M 474.445,230.335 H 281.377 V 18.425 L 272.981,13.58 C 262.448,7.501 249.47,7.503 238.938,13.586 l -8.314,4.802 V 230.335 H 37.548 l 0.008,50.751 h 193.068 v 212.486 l 8.396,4.845 c 10.533,6.079 23.511,6.077 34.043,-0.006 l 8.314,-4.802 V 281.086 h 193.076 l -0.002,-15.57 z"
         id="path42349" />
      <path
         d="m 483.473,149.495 c 0,-3.71 -0.493,-7.437 -1.464,-11.077 -0.503,-1.887 -1.15,-3.777 -1.928,-5.622 -3.18,-7.543 -8.4,-13.991 -15.092,-18.648 -1.096,-0.763 -2.099,-1.406 -3.066,-1.964 L 277.501,5.749 C 264.214,-1.919 247.703,-1.917 234.416,5.756 L 50.033,112.25 c -0.945,0.545 -1.892,1.15 -2.986,1.906 -4.086,2.831 -7.633,6.337 -10.545,10.421 -1.911,2.681 -3.518,5.593 -4.777,8.659 -2.146,5.23 -3.235,10.725 -3.235,16.334 l 0.036,212.932 c 0,0.927 0.034,1.881 0.105,2.92 0.017,0.24 0.039,0.479 0.064,0.716 l 0.013,0.128 c 0.06,0.693 0.133,1.383 0.23,2.095 0.035,0.259 0.076,0.517 0.133,0.864 0.11,0.697 0.235,1.389 0.38,2.078 0.054,0.254 0.109,0.509 0.164,0.755 0.177,0.776 0.377,1.544 0.604,2.339 0.04,0.145 0.081,0.291 0.115,0.401 1.138,3.811 2.804,7.451 4.953,10.82 0.016,0.025 0.031,0.051 0.048,0.076 1.483,2.317 3.194,4.498 5.049,6.446 0.048,0.052 0.175,0.188 0.224,0.239 0.896,0.93 1.847,1.829 2.825,2.674 l 0.481,0.405 c 1.096,0.921 2.107,1.701 3.097,2.391 1.115,0.775 2.087,1.397 3.062,1.96 l 184.424,106.436 c 6.643,3.834 14.089,5.751 21.536,5.751 7.451,0 14.904,-1.919 21.549,-5.757 L 461.965,399.744 c 0.945,-0.545 1.892,-1.15 2.987,-1.907 0.989,-0.685 2.001,-1.464 3.108,-2.388 l 0.476,-0.399 c 0.986,-0.85 1.939,-1.748 2.866,-2.707 l 0.136,-0.145 c 4.696,-4.904 8.205,-10.93 10.128,-17.354 0.049,-0.16 0.094,-0.321 0.147,-0.514 0.219,-0.762 0.421,-1.531 0.597,-2.306 0.058,-0.252 0.112,-0.505 0.169,-0.774 0.142,-0.684 0.269,-1.371 0.397,-2.179 0.041,-0.258 0.082,-0.516 0.122,-0.796 0.093,-0.687 0.168,-1.379 0.227,-2.062 l 0.014,-0.145 c 0.024,-0.239 0.047,-0.477 0.064,-0.721 0.071,-1.057 0.105,-2.018 0.104,-2.93 z m -28.812,-20.504 c 3.881,2.701 6.909,6.446 8.756,10.825 0.452,1.074 0.828,2.169 1.119,3.259 0.567,2.124 0.854,4.284 0.854,6.42 l 0.012,71.238 H 291.264 V 34.572 l 161.619,93.274 c 0.527,0.304 1.092,0.668 1.778,1.145 z M 48.454,140.104 c 0.732,-1.783 1.666,-3.475 2.773,-5.027 1.696,-2.379 3.754,-4.415 6.116,-6.051 0.673,-0.465 1.22,-0.817 1.73,-1.112 L 220.737,34.542 V 220.735 H 46.588 l -0.012,-71.166 c -10e-4,-3.242 0.631,-6.429 1.878,-9.465 z m 8.888,242.903 c -0.541,-0.377 -1.112,-0.82 -1.817,-1.412 l -0.264,-0.221 c -0.568,-0.491 -1.12,-1.013 -1.573,-1.482 -0.034,-0.037 -0.137,-0.15 -0.174,-0.186 -1.084,-1.138 -2.068,-2.388 -2.924,-3.719 -0.012,-0.019 -0.024,-0.037 -0.036,-0.057 -1.257,-1.966 -2.232,-4.087 -2.886,-6.281 l -0.076,-0.27 c -0.127,-0.444 -0.244,-0.891 -0.348,-1.35 l -0.095,-0.441 c -0.081,-0.389 -0.153,-0.781 -0.219,-1.198 l -0.078,-0.499 c -0.054,-0.401 -0.094,-0.804 -0.131,-1.222 l -0.047,-0.474 c -0.037,-0.561 -0.063,-1.125 -0.063,-1.701 L 46.598,291.263 H 220.735 V 477.426 L 59.117,384.151 c -0.525,-0.304 -1.091,-0.669 -1.775,-1.144 z m 408.021,-18.902 -0.051,0.521 c -0.035,0.406 -0.076,0.811 -0.128,1.194 l -0.083,0.532 c -0.064,0.404 -0.137,0.805 -0.218,1.19 l -0.098,0.448 c -0.104,0.457 -0.223,0.909 -0.352,1.358 -0.002,0.008 -0.005,0.018 -0.008,0.025 l -0.063,0.227 c -1.128,3.76 -3.163,7.251 -5.905,10.115 l -0.081,0.089 c -0.515,0.53 -1.067,1.052 -1.637,1.544 l -0.289,0.241 c -0.673,0.562 -1.26,1.016 -1.79,1.384 -0.673,0.465 -1.22,0.817 -1.73,1.112 L 291.265,477.456 V 291.263 h 105.878 c 4.995,0 9.042,-4.048 9.042,-9.042 0,-4.994 -4.047,-9.042 -9.042,-9.042 h -114.92 c -4.995,0 -9.042,4.048 -9.042,9.042 v 205.682 l -4.64,2.68 c -7.711,4.452 -17.291,4.455 -25.001,0.005 l -4.719,-2.723 V 282.221 c 0,-4.994 -4.047,-9.042 -9.042,-9.042 H 46.596 l -0.006,-34.36 h 183.187 c 4.995,0 9.042,-4.048 9.042,-9.042 V 24.095 l 4.64,-2.68 C 251.17,16.963 260.75,16.96 268.46,21.41 l 4.719,2.723 v 205.642 c 0,4.994 4.047,9.042 9.042,9.042 h 183.18 l 0.006,34.36 h -26.969 c -4.995,0 -9.042,4.048 -9.042,9.042 0,4.994 4.047,9.042 9.042,9.042 h 26.973 l 0.012,71.18 c 0.002,0.569 -0.024,1.132 -0.06,1.664 z"
         id="path42351"
         style="stroke-width:19.318" />
      <g
         id="g42353"
         style="stroke-width:19.318" />
      <g
         id="g42355"
         style="stroke-width:19.318" />
      <g
         id="g42357"
         style="stroke-width:19.318" />
      <g
         id="g42359"
         style="stroke-width:19.318" />
      <g
         id="g42361"
         style="stroke-width:19.318" />
      <g
         id="g42363"
         style="stroke-width:19.318" />
      <g
         id="g42365"
         style="stroke-width:19.318" />
      <g
         id="g42367"
         style="stroke-width:19.318" />
      <g
         id="g42369"
         style="stroke-width:19.318" />
      <g
         id="g42371"
         style="stroke-width:19.318" />
      <g
         id="g42373"
         style="stroke-width:19.318" />
      <g
         id="g42375"
         style="stroke-width:19.318" />
      <g
         id="g42377"
         style="stroke-width:19.318" />
      <g
         id="g42379"
         style="stroke-width:19.318" />
      <g
         id="g42381"
         style="stroke-width:19.318" />
    </g>
  </g>
</svg>
