<?xml version="1.0" encoding="UTF-8" standalone="no"?>
<!-- Created with Inkscape (http://www.inkscape.org/) -->

<svg
   width="4.1737347mm"
   height="4.173768mm"
   viewBox="0 0 4.1737347 4.173768"
   version="1.1"
   id="svg7288"
   inkscape:version="1.1 (c68e22c387, 2021-05-23)"
   sodipodi:docname="facebook.svg"
   xmlns:inkscape="http://www.inkscape.org/namespaces/inkscape"
   xmlns:sodipodi="http://sodipodi.sourceforge.net/DTD/sodipodi-0.dtd"
   xmlns="http://www.w3.org/2000/svg"
   xmlns:svg="http://www.w3.org/2000/svg">
  <sodipodi:namedview
     id="namedview7290"
     pagecolor="#ffffff"
     bordercolor="#666666"
     borderopacity="1.0"
     inkscape:pageshadow="2"
     inkscape:pageopacity="0.0"
     inkscape:pagecheckerboard="0"
     inkscape:document-units="mm"
     showgrid="false"
     inkscape:zoom="0.42404602"
     inkscape:cx="-82.538211"
     inkscape:cy="67.209686"
     inkscape:window-width="1366"
     inkscape:window-height="745"
     inkscape:window-x="-8"
     inkscape:window-y="-8"
     inkscape:window-maximized="1"
     inkscape:current-layer="layer1" />
  <defs
     id="defs7285" />
  <g
     inkscape:label="Capa 1"
     inkscape:groupmode="layer"
     id="layer1"
     transform="translate(-126.44674,-130.81438)">
    <g
       id="g16815"
       transform="matrix(0.73881335,0,0,0.73881335,319.293,73.424207)">
      <rect
         style="fill:#e7f6f2;fill-opacity:1;stroke:none;stroke-width:0.529167;stroke-linecap:square;stroke-dasharray:none"
         id="rect16795"
         width="3.5388021"
         height="4.8617187"
         x="-259.62238"
         y="78.466415"
         ry="0.79374999"
         rx="0.79374999" />
      <g
         id="g14167"
         transform="matrix(0.01381959,0,0,0.01381959,-261.02165,77.678848)">
        <path
           style="fill:#475993"
           d="M 353.701,0 H 55.087 C 24.665,0 0.002,24.662 0.002,55.085 v 298.616 c 0,30.423 24.662,55.085 55.085,55.085 h 147.275 l 0.251,-146.078 h -37.951 c -4.932,0 -8.935,-3.988 -8.954,-8.92 l -0.182,-47.087 c -0.019,-4.959 3.996,-8.989 8.955,-8.989 h 37.882 v -45.498 c 0,-52.8 32.247,-81.55 79.348,-81.55 h 38.65 c 4.945,0 8.955,4.009 8.955,8.955 v 39.704 c 0,4.944 -4.007,8.952 -8.95,8.955 l -23.719,0.011 c -25.615,0 -30.575,12.172 -30.575,30.035 v 39.389 h 56.285 c 5.363,0 9.524,4.683 8.892,10.009 l -5.581,47.087 c -0.534,4.506 -4.355,7.901 -8.892,7.901 h -50.453 l -0.251,146.078 h 87.631 c 30.422,0 55.084,-24.662 55.084,-55.084 V 55.085 C 408.786,24.662 384.124,0 353.701,0 Z"
           id="path14114" />
        <g
           id="g14116" />
        <g
           id="g14118" />
        <g
           id="g14120" />
        <g
           id="g14122" />
        <g
           id="g14124" />
        <g
           id="g14126" />
        <g
           id="g14128" />
        <g
           id="g14130" />
        <g
           id="g14132" />
        <g
           id="g14134" />
        <g
           id="g14136" />
        <g
           id="g14138" />
        <g
           id="g14140" />
        <g
           id="g14142" />
        <g
           id="g14144" />
      </g>
    </g>
  </g>
</svg>
