<?xml version="1.0" encoding="UTF-8" standalone="no"?>
<svg
   width="28.000326"
   height="25.795868"
   viewBox="0 0 28.000326 25.795868"
   version="1.1"
   id="svg18"
   sodipodi:docname="gitlab.svg"
   inkscape:version="1.1 (c68e22c387, 2021-05-23)"
   xmlns:inkscape="http://www.inkscape.org/namespaces/inkscape"
   xmlns:sodipodi="http://sodipodi.sourceforge.net/DTD/sodipodi-0.dtd"
   xmlns="http://www.w3.org/2000/svg"
   xmlns:svg="http://www.w3.org/2000/svg">
  <defs
     id="defs22" />
  <sodipodi:namedview
     id="namedview20"
     pagecolor="#ffffff"
     bordercolor="#666666"
     borderopacity="1.0"
     inkscape:pageshadow="2"
     inkscape:pageopacity="0.0"
     inkscape:pagecheckerboard="0"
     showgrid="false"
     inkscape:zoom="7.4375"
     inkscape:cx="13.915966"
     inkscape:cy="16.87395"
     inkscape:window-width="1366"
     inkscape:window-height="745"
     inkscape:window-x="-8"
     inkscape:window-y="-8"
     inkscape:window-maximized="1"
     inkscape:current-layer="svg18" />
  <title
     id="title2">file_type_gitlab</title>
  <polygon
     points="21.156,13.029 10.844,13.029 16,28.896 "
     style="fill:#e24329"
     id="polygon4"
     transform="translate(-1.9998365,-3.1041317)" />
  <polygon
     points="3.619,13.029 16,28.896 10.844,13.029 "
     style="fill:#fc6d26"
     id="polygon6"
     transform="translate(-1.9998365,-3.1041317)" />
  <path
     d="m 1.6191635,9.9248683 v 0 L 0.05216351,14.746868 a 1.067,1.067 0 0 0 0.388,1.193 l 13.56000049,9.856 z"
     style="fill:#fca326"
     id="path8" />
  <path
     d="m 1.6191635,9.9248683 h 7.225 l -3.105,-9.55600002 a 0.534,0.534 0 0 0 -1.015,0 z"
     style="fill:#e24329"
     id="path10" />
  <polygon
     points="28.381,13.029 16,28.896 21.156,13.029 "
     style="fill:#fc6d26"
     id="polygon12"
     transform="translate(-1.9998365,-3.1041317)" />
  <path
     d="m 26.381164,9.9248683 v 0 l 1.567,4.8219997 a 1.067,1.067 0 0 1 -0.388,1.193 l -13.56,9.856 z"
     style="fill:#fca326"
     id="path14" />
  <path
     d="m 26.381164,9.9248683 h -7.225 l 3.105,-9.55700002 a 0.534,0.534 0 0 1 1.015,0 z"
     style="fill:#e24329"
     id="path16" />
</svg>
