<?xml version="1.0" encoding="UTF-8" standalone="no"?>
<!-- Created with Inkscape (http://www.inkscape.org/) -->

<svg
   width="4.1736245mm"
   height="4.0917883mm"
   viewBox="0 0 4.1736245 4.0917883"
   version="1.1"
   id="svg7288"
   inkscape:version="1.1 (c68e22c387, 2021-05-23)"
   sodipodi:docname="linkedin.svg"
   xmlns:inkscape="http://www.inkscape.org/namespaces/inkscape"
   xmlns:sodipodi="http://sodipodi.sourceforge.net/DTD/sodipodi-0.dtd"
   xmlns="http://www.w3.org/2000/svg"
   xmlns:svg="http://www.w3.org/2000/svg">
  <sodipodi:namedview
     id="namedview7290"
     pagecolor="#ffffff"
     bordercolor="#666666"
     borderopacity="1.0"
     inkscape:pageshadow="2"
     inkscape:pageopacity="0.0"
     inkscape:pagecheckerboard="0"
     inkscape:document-units="mm"
     showgrid="false"
     inkscape:zoom="0.42404602"
     inkscape:cx="228.74876"
     inkscape:cy="270.01786"
     inkscape:window-width="1366"
     inkscape:window-height="745"
     inkscape:window-x="-8"
     inkscape:window-y="-8"
     inkscape:window-maximized="1"
     inkscape:current-layer="layer1" />
  <defs
     id="defs7285" />
  <g
     inkscape:label="Capa 1"
     inkscape:groupmode="layer"
     id="layer1"
     transform="translate(-44.085452,-77.195703)">
    <g
       id="g16896"
       transform="matrix(1.1046445,0,0,1.1046445,319.9447,-15.987584)">
      <rect
         style="fill:#e7f6f2;fill-opacity:1;stroke:none;stroke-width:0.529167;stroke-linecap:square;stroke-dasharray:none"
         id="rect16876"
         width="3.2974377"
         height="3.3909822"
         x="-249.45935"
         y="84.66909"
         ry="0.79374999"
         rx="0.79374999" />
      <g
         id="g16874"
         transform="matrix(0.00989071,0,0,0.00969677,-249.72672,84.355905)">
        <path
           style="fill:#0077b7"
           d="M 347.445,0 H 34.555 C 15.471,0 0,15.471 0,34.555 V 347.444 C 0,366.529 15.471,382 34.555,382 H 347.444 C 366.529,382 382,366.529 382,347.444 V 34.555 C 382,15.471 366.529,0 347.445,0 Z M 118.207,329.844 c 0,5.554 -4.502,10.056 -10.056,10.056 H 65.345 c -5.554,0 -10.056,-4.502 -10.056,-10.056 V 150.403 c 0,-5.554 4.502,-10.056 10.056,-10.056 h 42.806 c 5.554,0 10.056,4.502 10.056,10.056 z M 86.748,123.432 c -22.459,0 -40.666,-18.207 -40.666,-40.666 0,-22.459 18.207,-40.666 40.666,-40.666 22.459,0 40.666,18.207 40.666,40.666 0,22.459 -18.206,40.666 -40.666,40.666 z M 341.91,330.654 c 0,5.106 -4.14,9.246 -9.246,9.246 H 286.73 c -5.106,0 -9.246,-4.14 -9.246,-9.246 v -84.168 c 0,-12.556 3.683,-55.021 -32.813,-55.021 -28.309,0 -34.051,29.066 -35.204,42.11 v 97.079 c 0,5.106 -4.139,9.246 -9.246,9.246 h -44.426 c -5.106,0 -9.246,-4.14 -9.246,-9.246 V 149.593 c 0,-5.106 4.14,-9.246 9.246,-9.246 h 44.426 c 5.106,0 9.246,4.14 9.246,9.246 v 15.655 c 10.497,-15.753 26.097,-27.912 59.312,-27.912 73.552,0 73.131,68.716 73.131,106.472 z"
           id="path16821" />
        <g
           id="g16823" />
        <g
           id="g16825" />
        <g
           id="g16827" />
        <g
           id="g16829" />
        <g
           id="g16831" />
        <g
           id="g16833" />
        <g
           id="g16835" />
        <g
           id="g16837" />
        <g
           id="g16839" />
        <g
           id="g16841" />
        <g
           id="g16843" />
        <g
           id="g16845" />
        <g
           id="g16847" />
        <g
           id="g16849" />
        <g
           id="g16851" />
      </g>
    </g>
  </g>
</svg>
