<?xml version="1.0" encoding="UTF-8" standalone="no"?>
<!-- Created with Inkscape (http://www.inkscape.org/) -->

<svg
   width="10.155119mm"
   height="9.5225677mm"
   viewBox="0 0 10.155119 9.5225677"
   version="1.1"
   id="svg7288"
   inkscape:version="1.1 (c68e22c387, 2021-05-23)"
   sodipodi:docname="normal_ack.svg"
   xmlns:inkscape="http://www.inkscape.org/namespaces/inkscape"
   xmlns:sodipodi="http://sodipodi.sourceforge.net/DTD/sodipodi-0.dtd"
   xmlns="http://www.w3.org/2000/svg"
   xmlns:svg="http://www.w3.org/2000/svg">
  <sodipodi:namedview
     id="namedview7290"
     pagecolor="#ffffff"
     bordercolor="#666666"
     borderopacity="1.0"
     inkscape:pageshadow="2"
     inkscape:pageopacity="0.0"
     inkscape:pagecheckerboard="0"
     inkscape:document-units="mm"
     showgrid="false"
     inkscape:zoom="0.42404602"
     inkscape:cx="25.940581"
     inkscape:cy="119.09085"
     inkscape:window-width="1366"
     inkscape:window-height="745"
     inkscape:window-x="-8"
     inkscape:window-y="-8"
     inkscape:window-maximized="1"
     inkscape:current-layer="layer1" />
  <defs
     id="defs7285" />
  <g
     inkscape:label="Capa 1"
     inkscape:groupmode="layer"
     id="layer1"
     transform="translate(-97.874121,-117.53283)">
    <g
       id="g9119"
       transform="matrix(0.02076474,0,0,0.02076474,97.87412,117.21654)"
       style="fill:#e7f6f2;fill-opacity:1">
      <g
         id="XMLID_209_"
         style="fill:#e7f6f2;fill-opacity:1">
        <path
           id="XMLID_210_"
           d="M 90.987,386.269 C 81.805,365.829 81.805,365.829 73.632,343.864 66.764,322.029 63.535,310.291 60.947,291.947 47.925,228.422 82.44,149.377 82.44,149.377 c 0,0 -40.504,61.382 -33.758,143.82 2.548,21.43 3.531,32.227 8.733,55.229 6.728,24.271 8.034,25.795 15.025,47.257 5.3,13.476 15.926,34.386 20.178,41.919 -5.049,-2.825 -10.13,-3.669 -13.637,-1.152 -5.583,3.862 -14.205,22.435 -5.91,32.063 8.305,9.659 28.184,4.14 32.834,-0.827 4.74,-4.872 2.232,-15.034 -4.765,-23.217 3.043,0.683 6.349,0.244 9.204,-1.525 5.797,-3.588 7.591,-11.186 4.004,-16.981 -26.112,-42.195 -16.965,-26.61 -23.361,-39.694 z"
           style="fill:#e7f6f2;fill-opacity:1" />
        <path
           id="XMLID_211_"
           d="m 110.883,133.337 c 5.146,-7.809 18.613,-30.587 14.327,-35.44 -4.936,-5.228 -28.191,11.836 -34.166,20.829 -6.38,8.621 -6.152,18.799 -0.358,22.338 5.821,3.556 14.522,-0.048 20.197,-7.727 z"
           style="fill:#e7f6f2;fill-opacity:1" />
        <path
           id="XMLID_212_"
           d="m 92.643,190.888 c 6.608,-4.465 23.346,-18.931 22.484,-26.3 -0.909,-7.89 -21.031,-6.559 -28.531,-2.403 -7.476,3.783 -12.232,14.254 -10.162,22.291 2.061,8.066 9.497,10.455 16.209,6.412 z"
           style="fill:#e7f6f2;fill-opacity:1" />
        <path
           id="XMLID_213_"
           d="m 122.952,404.044 c -5.527,3.946 -5.479,13.458 0.894,20.847 6.348,7.385 15.933,9.058 20.675,4.171 4.675,-4.968 12.435,-22.321 7.363,-28.266 -5.107,-5.908 -23.322,-0.63 -28.932,3.248 z"
           style="fill:#e7f6f2;fill-opacity:1" />
        <path
           id="XMLID_214_"
           d="m 64.98,250.939 c 4.245,6.98 12.054,7.191 17.355,1.64 4.838,-6.364 23.954,-31.056 21.437,-37.241 -2.963,-7.402 -29.563,5.91 -35.415,12.191 -6.046,5.471 -7.622,16.476 -3.377,23.41 z"
           style="fill:#e7f6f2;fill-opacity:1" />
        <path
           id="XMLID_215_"
           d="m 91.945,316.395 c 3.142,-8.685 16.616,-40.927 11.98,-46.608 -5.592,-7.144 -31.203,15.1 -35.667,23.994 -4.992,7.906 -3.125,20.554 3.928,26.706 7.055,6.184 15.758,3.686 19.759,-4.092 z"
           style="fill:#e7f6f2;fill-opacity:1" />
        <path
           id="XMLID_216_"
           d="m 99.778,390.698 c 10.024,4.287 18.435,-1.703 19.862,-11.639 -0.073,-10.764 3.695,-49.969 -2.987,-54.385 -8.451,-5.959 -29.23,26.512 -30.852,37.989 -2.695,10.406 3.977,23.799 13.977,28.035 z"
           style="fill:#e7f6f2;fill-opacity:1" />
        <path
           id="XMLID_217_"
           d="m 63.487,179.345 c 7.045,-4.886 11.64,-14.968 10.747,-23.571 -1.227,-8.347 -8.143,-28.899 -16.244,-24.662 -8.735,4.499 -12.963,33.136 -10.714,41.821 1.738,8.896 9.189,11.265 16.211,6.412 z"
           style="fill:#e7f6f2;fill-opacity:1" />
        <path
           id="XMLID_218_"
           d="m 42.447,248.812 c 5.397,-6.689 6.988,-17.662 3.691,-25.649 -3.919,-7.308 -18.067,-37.876 -24.65,-31.999 -7.906,6.77 -1.479,48.559 3.604,56.009 4.147,8.084 11.965,8.295 17.355,1.639 z"
           style="fill:#e7f6f2;fill-opacity:1" />
        <path
           id="XMLID_219_"
           d="m 43.34,326.461 c 3.678,-9.368 1.802,-22.192 -4.417,-30.066 -6.792,-6.85 -32.004,-37.03 -37.525,-28.345 -6.94,10.211 13.783,55.879 22.185,62.518 7.386,7.744 16.088,5.244 19.757,-4.107 z"
           style="fill:#e7f6f2;fill-opacity:1" />
        <path
           id="XMLID_220_"
           d="m 73.357,406.189 c 0.374,-11.705 -6.308,-25.133 -15.828,-31.74 -9.886,-5.08 -47.493,-30.454 -50.609,-19.009 -4.44,13.832 34.603,58.086 46.575,62.372 11.062,6.023 19.473,0.031 19.862,-11.623 z"
           style="fill:#e7f6f2;fill-opacity:1" />
        <path
           id="XMLID_221_"
           d="m 410.074,436.449 c -3.506,-2.517 -8.588,-1.673 -13.638,1.152 4.254,-7.533 14.879,-28.443 20.181,-41.919 6.988,-21.462 8.295,-22.986 15.024,-47.257 5.203,-23.003 6.185,-33.8 8.734,-55.229 6.744,-82.438 -33.76,-143.82 -33.76,-143.82 0,0 34.515,79.045 21.495,142.57 -2.59,18.344 -5.82,30.082 -12.688,51.917 -8.174,21.965 -8.174,21.965 -17.355,42.405 -6.395,13.084 2.753,-2.501 -23.361,39.692 -3.587,5.796 -1.793,13.394 4.002,16.981 2.858,1.77 6.161,2.208 9.205,1.525 -6.997,8.183 -9.506,18.345 -4.765,23.217 4.652,4.967 24.531,10.486 32.834,0.827 8.297,-9.626 -0.323,-28.198 -5.908,-32.061 z"
           style="fill:#e7f6f2;fill-opacity:1" />
        <path
           id="XMLID_222_"
           d="m 363.848,97.897 c -4.288,4.854 9.18,27.632 14.326,35.44 5.674,7.679 14.374,11.283 20.195,7.727 5.795,-3.539 6.022,-13.717 -0.358,-22.338 -5.972,-8.993 -29.23,-26.057 -34.163,-20.829 z"
           style="fill:#e7f6f2;fill-opacity:1" />
        <path
           id="XMLID_223_"
           d="m 402.46,162.185 c -7.501,-4.155 -27.623,-5.486 -28.532,2.403 -0.861,7.369 15.878,21.835 22.483,26.3 6.713,4.043 14.15,1.654 16.211,-6.412 2.069,-8.037 -2.686,-18.508 -10.162,-22.291 z"
           style="fill:#e7f6f2;fill-opacity:1" />
        <path
           id="XMLID_224_"
           d="m 337.174,400.796 c -5.074,5.944 2.687,23.298 7.362,28.266 4.739,4.887 14.326,3.214 20.675,-4.171 6.371,-7.389 6.419,-16.9 0.892,-20.847 -5.609,-3.878 -23.824,-9.156 -28.929,-3.248 z"
           style="fill:#e7f6f2;fill-opacity:1" />
        <path
           id="XMLID_225_"
           d="m 420.7,227.528 c -5.854,-6.281 -32.454,-19.594 -35.416,-12.191 -2.518,6.186 16.599,30.877 21.437,37.241 5.301,5.552 13.108,5.341 17.355,-1.64 4.246,-6.933 2.67,-17.938 -3.376,-23.41 z"
           style="fill:#e7f6f2;fill-opacity:1" />
        <path
           id="XMLID_226_"
           d="m 416.868,320.486 c 7.054,-6.152 8.921,-18.8 3.928,-26.706 -4.463,-8.895 -30.073,-31.138 -35.667,-23.994 -4.634,5.682 8.841,37.924 11.981,46.608 4.004,7.779 12.704,10.277 19.758,4.092 z"
           style="fill:#e7f6f2;fill-opacity:1" />
        <path
           id="XMLID_227_"
           d="m 372.402,324.675 c -6.682,4.416 -2.915,43.621 -2.987,54.385 1.429,9.936 9.838,15.926 19.862,11.639 10.001,-4.236 16.674,-17.629 13.979,-28.034 -1.624,-11.478 -22.404,-43.949 -30.854,-37.99 z"
           style="fill:#e7f6f2;fill-opacity:1" />
        <path
           id="XMLID_228_"
           d="m 425.57,179.345 c 7.021,4.854 14.473,2.484 16.209,-6.412 2.25,-8.686 -1.979,-37.322 -10.713,-41.821 -8.102,-4.237 -15.017,16.315 -16.242,24.662 -0.895,8.603 3.7,18.685 10.746,23.571 z"
           style="fill:#e7f6f2;fill-opacity:1" />
        <path
           id="XMLID_229_"
           d="m 446.611,248.812 c 5.389,6.656 13.206,6.445 17.354,-1.64 5.082,-7.45 11.51,-49.239 3.604,-56.009 -6.583,-5.877 -20.732,24.691 -24.653,31.999 -3.294,7.988 -1.704,18.96 3.695,25.65 z"
           style="fill:#e7f6f2;fill-opacity:1" />
        <path
           id="XMLID_230_"
           d="m 450.133,296.395 c -6.217,7.874 -8.093,20.698 -4.415,30.066 3.669,9.351 12.369,11.851 19.756,4.106 8.401,-6.639 29.124,-52.307 22.184,-62.518 -5.519,-8.685 -30.731,21.496 -37.525,28.346 z"
           style="fill:#e7f6f2;fill-opacity:1" />
        <path
           id="XMLID_231_"
           d="m 431.527,374.448 c -9.52,6.607 -16.201,20.035 -15.827,31.74 0.39,11.654 8.799,17.647 19.862,11.623 11.973,-4.286 51.018,-48.54 46.577,-62.372 -3.117,-11.445 -40.724,13.929 -50.612,19.009 z"
           style="fill:#e7f6f2;fill-opacity:1" />
        <path
           id="XMLID_232_"
           d="M 314.534,181.489 368.708,38.852 349.285,31.481 296.328,170.934 c 6.388,3.02 12.484,6.528 18.206,10.555 z"
           style="fill:#e7f6f2;fill-opacity:1" />
        <path
           id="XMLID_233_"
           d="m 325.972,22.618 -19.425,-7.37 -54.815,144.322 c 7.208,0.438 14.238,1.462 21.064,3.086 z"
           style="fill:#e7f6f2;fill-opacity:1" />
        <path
           id="XMLID_234_"
           d="m 237.332,159.57 -54.823,-144.338 -19.424,7.37 53.183,140.055 c 6.827,-1.625 13.856,-2.662 21.064,-3.087 z"
           style="fill:#e7f6f2;fill-opacity:1" />
        <path
           id="XMLID_235_"
           d="m 192.737,170.935 -52.966,-139.469 -19.423,7.371 54.174,142.652 c 5.722,-4.044 11.826,-7.55 18.215,-10.554 z"
           style="fill:#e7f6f2;fill-opacity:1" />
        <path
           id="XMLID_236_"
           d="m 244.525,175.838 c -58.136,0 -105.256,47.129 -105.256,105.248 0,58.134 47.12,105.263 105.256,105.263 58.127,0 105.255,-47.129 105.255,-105.263 0,-58.119 -47.128,-105.248 -105.255,-105.248 z m 0,186.956 c -45.05,0 -81.7,-36.658 -81.7,-81.708 0,-45.052 36.65,-81.692 81.7,-81.692 45.05,0 81.7,36.641 81.7,81.692 0,45.05 -36.651,81.708 -81.7,81.708 z"
           style="fill:#e7f6f2;fill-opacity:1" />
        <path
           id="XMLID_239_"
           d="m 244.525,216.019 c -35.888,0 -65.075,29.188 -65.075,65.067 0,35.895 29.187,65.083 65.075,65.083 35.885,0 65.075,-29.188 65.075,-65.083 0,-35.879 -29.19,-65.067 -65.075,-65.067 z"
           style="fill:#e7f6f2;fill-opacity:1" />
      </g>
      <g
         id="g9040"
         style="fill:#e7f6f2;fill-opacity:1" />
      <g
         id="g9042"
         style="fill:#e7f6f2;fill-opacity:1" />
      <g
         id="g9044"
         style="fill:#e7f6f2;fill-opacity:1" />
      <g
         id="g9046"
         style="fill:#e7f6f2;fill-opacity:1" />
      <g
         id="g9048"
         style="fill:#e7f6f2;fill-opacity:1" />
      <g
         id="g9050"
         style="fill:#e7f6f2;fill-opacity:1" />
      <g
         id="g9052"
         style="fill:#e7f6f2;fill-opacity:1" />
      <g
         id="g9054"
         style="fill:#e7f6f2;fill-opacity:1" />
      <g
         id="g9056"
         style="fill:#e7f6f2;fill-opacity:1" />
      <g
         id="g9058"
         style="fill:#e7f6f2;fill-opacity:1" />
      <g
         id="g9060"
         style="fill:#e7f6f2;fill-opacity:1" />
      <g
         id="g9062"
         style="fill:#e7f6f2;fill-opacity:1" />
      <g
         id="g9064"
         style="fill:#e7f6f2;fill-opacity:1" />
      <g
         id="g9066"
         style="fill:#e7f6f2;fill-opacity:1" />
      <g
         id="g9068"
         style="fill:#e7f6f2;fill-opacity:1" />
    </g>
  </g>
</svg>
