<?xml version="1.0" encoding="UTF-8" standalone="no"?>
<!-- Created with Inkscape (http://www.inkscape.org/) -->

<svg
   width="9.7700319mm"
   height="10.250053mm"
   viewBox="0 0 9.7700319 10.250053"
   version="1.1"
   id="svg7288"
   inkscape:version="1.1 (c68e22c387, 2021-05-23)"
   sodipodi:docname="ongoing_title.svg"
   xmlns:inkscape="http://www.inkscape.org/namespaces/inkscape"
   xmlns:sodipodi="http://sodipodi.sourceforge.net/DTD/sodipodi-0.dtd"
   xmlns="http://www.w3.org/2000/svg"
   xmlns:svg="http://www.w3.org/2000/svg">
  <sodipodi:namedview
     id="namedview7290"
     pagecolor="#ffffff"
     bordercolor="#666666"
     borderopacity="1.0"
     inkscape:pageshadow="2"
     inkscape:pageopacity="0.0"
     inkscape:pagecheckerboard="0"
     inkscape:document-units="mm"
     showgrid="false"
     inkscape:zoom="0.42404602"
     inkscape:cx="84.896446"
     inkscape:cy="-137.95672"
     inkscape:window-width="1366"
     inkscape:window-height="745"
     inkscape:window-x="-8"
     inkscape:window-y="-8"
     inkscape:window-maximized="1"
     inkscape:current-layer="layer1" />
  <defs
     id="defs7285" />
  <g
     inkscape:label="Capa 1"
     inkscape:groupmode="layer"
     id="layer1"
     transform="translate(-82.467925,-185.17959)">
    <g
       id="g10107"
       transform="translate(50.706171,-10.575925)">
      <path
         d="m 36.972711,199.66078 -1.873676,0.87438 0.499653,0.22483 v 0.42471 c -0.149901,0.0499 -0.249827,0.19985 -0.249827,0.34975 0,0.1499 0.09997,0.29979 0.249827,0.34976 v 0.025 l -0.224851,0.52462 c -0.07501,0.22485 -0.02497,0.47467 0.349753,0.47467 0.374739,0 0.424702,-0.24982 0.349752,-0.47467 l -0.224839,-0.52462 c 0.149889,-0.075 0.249826,-0.19986 0.249826,-0.37474 0,-0.17487 -0.09997,-0.29978 -0.249826,-0.34975 v -0.29978 l 1.124208,0.52462 1.873665,-0.87438 z m 1.099209,1.62385 -1.124185,0.49964 -0.599579,-0.27481 v 0.025 c 0,0.17487 -0.07501,0.32477 -0.199864,0.44967 l 0.14989,0.34976 v 0.025 c 0.02497,0.1 0.04993,0.19985 0.02497,0.29979 0.174876,0.075 0.374739,0.12491 0.624566,0.12491 0.824407,0 1.124196,-0.49965 1.124196,-0.74948 z"
         id="path23037"
         style="fill:#e4f3ef;fill-opacity:1;stroke-width:0.249822" />
      <g
         id="g30742"
         transform="matrix(0.38899634,0,0,0.38899634,31.521743,195.75552)"
         style="fill:#e4f3ef;fill-opacity:1">
        <g
           id="g30680"
           style="fill:#e4f3ef;fill-opacity:1">
          <g
             id="g30678"
             style="fill:#e4f3ef;fill-opacity:1">
            <circle
               cx="13.792"
               cy="3.082"
               r="3.082"
               id="circle30662"
               style="fill:#e4f3ef;fill-opacity:1" />
            <circle
               cx="13.792"
               cy="24.500999"
               r="1.849"
               id="circle30664"
               style="fill:#e4f3ef;fill-opacity:1" />
            <circle
               cx="6.2189999"
               cy="6.2179999"
               r="2.7739999"
               id="circle30666"
               style="fill:#e4f3ef;fill-opacity:1" />
            <circle
               cx="21.365"
               cy="21.363001"
               r="1.541"
               id="circle30668"
               style="fill:#e4f3ef;fill-opacity:1" />
            <circle
               cx="3.082"
               cy="13.792"
               r="2.4649999"
               id="circle30670"
               style="fill:#e4f3ef;fill-opacity:1" />
            <circle
               cx="24.500999"
               cy="13.791"
               r="1.232"
               id="circle30672"
               style="fill:#e4f3ef;fill-opacity:1" />
            <path
               d="m 4.694,19.84 c -0.843,0.843 -0.843,2.207 0,3.05 0.842,0.843 2.208,0.843 3.05,0 0.843,-0.843 0.843,-2.207 0,-3.05 -0.842,-0.844 -2.207,-0.852 -3.05,0 z"
               id="path30674"
               style="fill:#e4f3ef;fill-opacity:1" />
            <circle
               cx="21.364"
               cy="6.2179999"
               r="0.92400002"
               id="circle30676"
               style="fill:#e4f3ef;fill-opacity:1" />
          </g>
        </g>
        <g
           id="g30682"
           style="fill:#e4f3ef;fill-opacity:1" />
        <g
           id="g30684"
           style="fill:#e4f3ef;fill-opacity:1" />
        <g
           id="g30686"
           style="fill:#e4f3ef;fill-opacity:1" />
        <g
           id="g30688"
           style="fill:#e4f3ef;fill-opacity:1" />
        <g
           id="g30690"
           style="fill:#e4f3ef;fill-opacity:1" />
        <g
           id="g30692"
           style="fill:#e4f3ef;fill-opacity:1" />
        <g
           id="g30694"
           style="fill:#e4f3ef;fill-opacity:1" />
        <g
           id="g30696"
           style="fill:#e4f3ef;fill-opacity:1" />
        <g
           id="g30698"
           style="fill:#e4f3ef;fill-opacity:1" />
        <g
           id="g30700"
           style="fill:#e4f3ef;fill-opacity:1" />
        <g
           id="g30702"
           style="fill:#e4f3ef;fill-opacity:1" />
        <g
           id="g30704"
           style="fill:#e4f3ef;fill-opacity:1" />
        <g
           id="g30706"
           style="fill:#e4f3ef;fill-opacity:1" />
        <g
           id="g30708"
           style="fill:#e4f3ef;fill-opacity:1" />
        <g
           id="g30710"
           style="fill:#e4f3ef;fill-opacity:1" />
      </g>
    </g>
  </g>
</svg>
