<?xml version="1.0" encoding="UTF-8" standalone="no"?>
<!-- Created with Inkscape (http://www.inkscape.org/) -->

<svg
   width="2.7960289mm"
   height="2.7960289mm"
   viewBox="0 0 2.7960289 2.7960289"
   version="1.1"
   id="svg7288"
   inkscape:version="1.1 (c68e22c387, 2021-05-23)"
   sodipodi:docname="phone.svg"
   xmlns:inkscape="http://www.inkscape.org/namespaces/inkscape"
   xmlns:sodipodi="http://sodipodi.sourceforge.net/DTD/sodipodi-0.dtd"
   xmlns="http://www.w3.org/2000/svg"
   xmlns:svg="http://www.w3.org/2000/svg">
  <sodipodi:namedview
     id="namedview7290"
     pagecolor="#ffffff"
     bordercolor="#666666"
     borderopacity="1.0"
     inkscape:pageshadow="2"
     inkscape:pageopacity="0.0"
     inkscape:pagecheckerboard="0"
     inkscape:document-units="mm"
     showgrid="false"
     inkscape:zoom="0.42404602"
     inkscape:cx="-84.896446"
     inkscape:cy="-27.119698"
     inkscape:window-width="1366"
     inkscape:window-height="745"
     inkscape:window-x="-8"
     inkscape:window-y="-8"
     inkscape:window-maximized="1"
     inkscape:current-layer="layer1" />
  <defs
     id="defs7285" />
  <g
     inkscape:label="Capa 1"
     inkscape:groupmode="layer"
     id="layer1"
     transform="translate(-127.1356,-155.83728)">
    <g
       id="g7706"
       transform="matrix(0.00664909,0,0,0.00664909,127.1356,155.83728)"
       style="fill:#e7f6f2;fill-opacity:1">
      <path
         d="m 293.814,254.728 -37.701,28.083 -7.636,24.527 C 192.952,274.065 146.449,227.562 113.176,172.037 L 137.703,164.401 165.786,126.7 75.978,0 33.567,20.089 0,101.609 l 0.863,2.632 c 24.033,73.265 65.555,140.81 120.077,195.332 54.522,54.522 122.067,96.044 195.332,120.077 l 2.632,0.863 81.521,-33.567 20.088,-42.41 z M 147.246,126.481 133.298,145.205 50.681,28.58 71.021,18.946 Z M 318.327,404.53 C 248.299,381.102 183.762,341.182 131.547,288.967 79.332,236.752 39.412,172.215 15.985,102.186 l 25.164,-61.113 79.908,112.801 -30.221,9.409 4.594,8.095 c 36.402,64.154 89.554,117.306 153.708,153.708 l 8.096,4.594 9.408,-30.221 112.801,79.907 z m 73.607,-34.697 -116.626,-82.617 18.724,-13.948 107.536,76.225 z"
         id="path7653"
         style="fill:#e7f6f2;fill-opacity:1" />
      <g
         id="g7655"
         style="fill:#e7f6f2;fill-opacity:1" />
      <g
         id="g7657"
         style="fill:#e7f6f2;fill-opacity:1" />
      <g
         id="g7659"
         style="fill:#e7f6f2;fill-opacity:1" />
      <g
         id="g7661"
         style="fill:#e7f6f2;fill-opacity:1" />
      <g
         id="g7663"
         style="fill:#e7f6f2;fill-opacity:1" />
      <g
         id="g7665"
         style="fill:#e7f6f2;fill-opacity:1" />
      <g
         id="g7667"
         style="fill:#e7f6f2;fill-opacity:1" />
      <g
         id="g7669"
         style="fill:#e7f6f2;fill-opacity:1" />
      <g
         id="g7671"
         style="fill:#e7f6f2;fill-opacity:1" />
      <g
         id="g7673"
         style="fill:#e7f6f2;fill-opacity:1" />
      <g
         id="g7675"
         style="fill:#e7f6f2;fill-opacity:1" />
      <g
         id="g7677"
         style="fill:#e7f6f2;fill-opacity:1" />
      <g
         id="g7679"
         style="fill:#e7f6f2;fill-opacity:1" />
      <g
         id="g7681"
         style="fill:#e7f6f2;fill-opacity:1" />
      <g
         id="g7683"
         style="fill:#e7f6f2;fill-opacity:1" />
    </g>
  </g>
</svg>
