<?xml version="1.0" encoding="UTF-8" standalone="no"?>
<!-- Created with Inkscape (http://www.inkscape.org/) -->

<svg
   width="6.8840475mm"
   height="7.7461367mm"
   viewBox="0 0 6.8840475 7.7461367"
   version="1.1"
   id="svg7288"
   inkscape:version="1.1 (c68e22c387, 2021-05-23)"
   sodipodi:docname="spanish.svg"
   xmlns:inkscape="http://www.inkscape.org/namespaces/inkscape"
   xmlns:sodipodi="http://sodipodi.sourceforge.net/DTD/sodipodi-0.dtd"
   xmlns="http://www.w3.org/2000/svg"
   xmlns:svg="http://www.w3.org/2000/svg">
  <sodipodi:namedview
     id="namedview7290"
     pagecolor="#ffffff"
     bordercolor="#666666"
     borderopacity="1.0"
     inkscape:pageshadow="2"
     inkscape:pageopacity="0.0"
     inkscape:pagecheckerboard="0"
     inkscape:document-units="mm"
     showgrid="false"
     inkscape:zoom="0.42404602"
     inkscape:cx="73.105273"
     inkscape:cy="116.73261"
     inkscape:window-width="1366"
     inkscape:window-height="745"
     inkscape:window-x="-8"
     inkscape:window-y="-8"
     inkscape:window-maximized="1"
     inkscape:current-layer="layer1" />
  <defs
     id="defs7285" />
  <g
     inkscape:label="Capa 1"
     inkscape:groupmode="layer"
     id="layer1"
     transform="translate(-85.782766,-117.7971)">
    <g
       id="g41612"
       transform="matrix(0.01512921,0,0,0.01512921,85.35172,117.7971)"
       style="stroke-width:19.3184">
      <path
         style="fill:#ffe000;stroke-width:19.3184"
         d="m 473.119,371.858 c 0.176,-0.611 0.336,-1.229 0.479,-1.851 0.046,-0.201 0.089,-0.401 0.131,-0.603 0.113,-0.541 0.213,-1.085 0.3,-1.634 0.037,-0.236 0.076,-0.473 0.11,-0.711 0.075,-0.545 0.131,-1.094 0.18,-1.643 0.021,-0.225 0.047,-0.447 0.063,-0.674 0.052,-0.767 0.084,-1.537 0.084,-2.314 v 0 0 -0.006 l -0.006,-40.908 v -0.001 l -0.005,-26.206 v -0.002 -4.214 l -0.004,-25.576 v 0 l -0.008,-48.827 -0.005,-26.206 -0.006,-40.988 c 0,-2.996 -0.408,-5.93 -1.16,-8.75 -0.405,-1.517 -0.915,-2.997 -1.521,-4.435 -2.478,-5.877 -6.574,-11.017 -11.926,-14.741 -0.784,-0.545 -1.584,-1.071 -2.42,-1.554 L 434.53,106.813 413.115,94.454 395.875,84.504 329.945,46.454 304.226,31.61 284.936,20.477 272.982,13.579 C 262.449,7.5 249.471,7.502 238.939,13.585 l -11.873,6.857 -19.29,11.141 -25.719,14.855 v 0 l -65.923,38.076 -28.89,16.686 -21.409,12.366 -11.284,6.518 c -0.811,0.469 -1.59,0.979 -2.353,1.507 -3.272,2.267 -6.074,5.068 -8.333,8.237 -1.517,2.128 -2.781,4.423 -3.774,6.842 -1.655,4.032 -2.558,8.399 -2.557,12.9 l 0.006,40.915 0.005,26.206 0.012,73.743 v 4.011 0.849 0.002 0.013 0 0.005 0 l 0.005,26.201 v 0 1.864 l 0.002,12.618 0.004,26.499 v 0.006 0 c 0,0.773 0.033,1.54 0.084,2.304 0.016,0.224 0.042,0.446 0.061,0.669 0.048,0.55 0.105,1.096 0.18,1.638 0.033,0.236 0.072,0.471 0.109,0.706 0.087,0.546 0.186,1.087 0.298,1.626 0.042,0.201 0.086,0.403 0.131,0.603 0.14,0.615 0.298,1.223 0.471,1.825 0.033,0.113 0.061,0.227 0.095,0.34 0.909,3.043 2.24,5.93 3.94,8.59 0,0 0.001,10e-4 0.001,0.002 l 10e-4,10e-4 c 1.172,1.832 2.517,3.552 4.026,5.137 0.051,0.052 0.099,0.106 0.148,0.158 0.709,0.735 1.454,1.441 2.232,2.112 0.125,0.11 0.254,0.215 0.382,0.322 0.786,0.661 1.595,1.3 2.445,1.89 0.784,0.545 1.584,1.071 2.42,1.554 l 22.553,13.016 21.415,12.36 17.562,10.136 91.65,52.894 19.29,11.133 11.954,6.898 c 10.533,6.079 23.511,6.077 34.043,-0.006 l 11.873,-6.857 19.29,-11.141 25.719,-14.854 55.558,-32.088 10.363,-5.986 26.362,-15.226 21.409,-12.366 13.814,-7.979 c 0.811,-0.469 1.59,-0.979 2.353,-1.507 0.851,-0.59 1.659,-1.226 2.446,-1.883 0.128,-0.107 0.258,-0.213 0.385,-0.322 0.78,-0.673 1.526,-1.376 2.238,-2.11 0.047,-0.048 0.09,-0.098 0.136,-0.146 3.724,-3.892 6.477,-8.609 8.021,-13.766 0.034,-0.105 0.062,-0.214 0.093,-0.321 z"
         id="path41547" />
      <g
         id="g41553"
         style="stroke-width:19.3184">
        <path
           style="fill:#ed1f34;stroke-width:19.3184"
           d="m 474.431,149.496 c 0,-2.996 -0.408,-5.93 -1.16,-8.75 -0.405,-1.517 -0.915,-2.997 -1.521,-4.435 -2.478,-5.877 -6.574,-11.017 -11.926,-14.741 -0.784,-0.545 -1.584,-1.071 -2.42,-1.554 L 434.529,106.815 413.114,94.456 395.874,84.506 329.944,46.456 304.225,31.613 284.935,20.48 272.981,13.582 C 262.448,7.503 249.47,7.505 238.938,13.588 l -11.873,6.857 -19.29,11.141 -25.718,14.854 v 0 L 116.136,84.514 87.244,101.2 65.835,113.566 54.551,120.084 c -0.811,0.469 -1.59,0.979 -2.353,1.507 -3.272,2.267 -6.074,5.068 -8.333,8.237 -1.517,2.128 -2.781,4.423 -3.774,6.842 -1.655,4.032 -2.558,8.399 -2.557,12.9 v 3.911 h 436.898 v -3.985 z"
           id="path41549" />
        <path
           style="fill:#ed1f34;stroke-width:19.3184"
           d="M 395.927,358.518 H 37.568 v 3.977 0.006 0 c 0,0.773 0.033,1.54 0.084,2.304 0.016,0.224 0.042,0.446 0.061,0.669 0.048,0.55 0.105,1.096 0.18,1.638 0.033,0.236 0.072,0.471 0.109,0.706 0.087,0.546 0.186,1.087 0.298,1.626 0.042,0.201 0.086,0.403 0.131,0.603 0.14,0.615 0.298,1.222 0.471,1.825 0.033,0.113 0.061,0.227 0.095,0.34 0.909,3.043 2.24,5.93 3.94,8.59 0,0 0.001,10e-4 0.001,0.002 l 10e-4,0.001 c 1.172,1.833 2.517,3.552 4.026,5.137 0.051,0.052 0.099,0.106 0.148,0.158 0.709,0.735 1.454,1.441 2.232,2.112 0.125,0.11 0.254,0.215 0.382,0.322 0.786,0.661 1.595,1.3 2.445,1.89 0.784,0.545 1.584,1.071 2.42,1.554 l 22.553,13.016 21.415,12.36 17.562,10.136 91.65,52.894 19.29,11.133 11.954,6.898 c 10.533,6.079 23.511,6.077 34.043,-0.006 l 11.873,-6.857 19.29,-11.141 25.719,-14.854 55.558,-32.088 10.363,-5.986 26.362,-15.226 21.409,-12.366 13.814,-7.979 c 0.811,-0.469 1.59,-0.979 2.353,-1.507 0.851,-0.59 1.659,-1.226 2.446,-1.883 0.128,-0.107 0.258,-0.213 0.385,-0.322 0.78,-0.673 1.526,-1.376 2.238,-2.11 0.047,-0.048 0.09,-0.098 0.136,-0.146 3.724,-3.892 6.477,-8.609 8.021,-13.766 0.031,-0.106 0.059,-0.215 0.09,-0.322 0.176,-0.611 0.336,-1.229 0.479,-1.851 0.046,-0.201 0.089,-0.401 0.131,-0.603 0.113,-0.541 0.213,-1.085 0.3,-1.634 0.037,-0.236 0.076,-0.473 0.11,-0.711 0.075,-0.545 0.131,-1.094 0.18,-1.643 0.02,-0.225 0.047,-0.447 0.063,-0.674 0.052,-0.767 0.084,-1.537 0.084,-2.314 v 0 -0.006 -3.905 H 415.23 Z"
           id="path41551" />
      </g>
      <path
         d="m 483.473,149.494 c 0,-3.711 -0.494,-7.439 -1.466,-11.081 -0.506,-1.898 -1.155,-3.787 -1.925,-5.615 -3.179,-7.543 -8.398,-13.992 -15.095,-18.653 -1.115,-0.775 -2.087,-1.397 -3.062,-1.96 L 277.501,5.75 C 264.212,-1.919 247.702,-1.916 234.416,5.757 L 50.027,112.253 c -0.946,0.546 -1.892,1.151 -2.979,1.904 -4.086,2.831 -7.634,6.335 -10.547,10.421 -1.912,2.684 -3.519,5.596 -4.775,8.657 -2.147,5.231 -3.235,10.726 -3.235,16.335 l 0.035,212.932 c 0,0.921 0.034,1.875 0.105,2.92 0.016,0.233 0.037,0.465 0.06,0.697 l 0.014,0.148 c 0.061,0.693 0.134,1.384 0.231,2.095 0.034,0.24 0.071,0.479 0.11,0.719 l 0.025,0.156 c 0.11,0.691 0.235,1.377 0.38,2.07 0.053,0.254 0.107,0.509 0.164,0.755 0.177,0.776 0.377,1.544 0.606,2.347 l 0.112,0.393 c 1.143,3.829 2.821,7.486 4.985,10.872 0.013,0.022 0.028,0.043 0.041,0.065 1.477,2.3 3.178,4.468 5.043,6.426 0.041,0.045 0.16,0.172 0.203,0.216 0.892,0.925 1.842,1.824 2.818,2.668 l 0.489,0.412 c 1.098,0.922 2.111,1.704 3.096,2.388 1.113,0.775 2.086,1.398 3.065,1.963 l 184.424,106.436 c 6.643,3.834 14.089,5.751 21.536,5.751 7.452,0 14.904,-1.919 21.549,-5.757 L 461.968,399.746 c 0.949,-0.549 1.896,-1.154 2.979,-1.904 0.985,-0.681 1.999,-1.46 3.114,-2.392 l 0.474,-0.399 c 0.99,-0.852 1.942,-1.751 2.808,-2.645 l 0.197,-0.206 c 4.696,-4.906 8.205,-10.931 10.155,-17.44 l 0.107,-0.379 c 10e-4,-0.004 0.002,-0.008 0.004,-0.012 0.223,-0.774 0.426,-1.554 0.606,-2.342 l 0.169,-0.772 c 0.142,-0.684 0.269,-1.371 0.398,-2.179 0.041,-0.258 0.082,-0.516 0.119,-0.786 0.095,-0.69 0.169,-1.385 0.228,-2.071 l 0.014,-0.145 c 0.024,-0.239 0.047,-0.477 0.063,-0.721 0.071,-1.044 0.105,-2 0.105,-2.931 z M 51.226,135.077 c 1.696,-2.379 3.755,-4.415 6.117,-6.051 0.67,-0.464 1.22,-0.817 1.729,-1.112 L 243.461,21.417 c 7.711,-4.454 17.29,-4.455 25.001,-0.005 l 184.422,106.435 c 0.526,0.304 1.091,0.668 1.778,1.145 3.881,2.701 6.909,6.446 8.759,10.831 0.448,1.063 0.825,2.159 1.116,3.253 0.121,0.452 0.222,0.907 0.317,1.361 H 47.127 c 0.312,-1.47 0.747,-2.92 1.329,-4.337 0.731,-1.78 1.662,-3.471 2.77,-5.023 z M 464.785,367.99 c -0.104,0.457 -0.222,0.909 -0.352,1.358 v 0 l -0.066,0.237 c -1.128,3.765 -3.165,7.26 -5.91,10.128 l -0.082,0.089 c -0.511,0.529 -1.065,1.05 -1.653,1.558 l -0.271,0.227 c -0.686,0.574 -1.256,1.014 -1.796,1.388 -0.668,0.462 -1.215,0.814 -1.726,1.109 L 268.54,490.581 c -7.71,4.452 -17.288,4.455 -25.001,0.005 L 59.117,384.152 c -0.526,-0.304 -1.091,-0.668 -1.779,-1.147 -0.539,-0.376 -1.109,-0.817 -1.782,-1.382 l -0.292,-0.245 c -0.573,-0.496 -1.124,-1.018 -1.593,-1.503 -0.028,-0.03 -0.127,-0.136 -0.156,-0.166 -1.098,-1.154 -2.093,-2.423 -2.956,-3.772 -0.01,-0.016 -0.019,-0.03 -0.029,-0.046 -1.245,-1.957 -2.21,-4.064 -2.867,-6.268 l -0.068,-0.242 c -0.127,-0.444 -0.245,-0.891 -0.35,-1.35 l -0.093,-0.432 c -0.002,-0.013 -0.004,-0.025 -0.007,-0.037 h 340.342 c 4.994,0 9.042,-4.048 9.042,-9.042 0,-4.994 -4.048,-9.042 -9.042,-9.042 H 46.609 l -0.03,-186.954 h 418.814 l 0.03,186.954 h -41.749 c -4.994,0 -9.042,4.048 -9.042,9.042 0,4.994 4.048,9.042 9.042,9.042 h 41.205 c -0.002,0.013 -0.004,0.025 -0.007,0.037 z"
         id="path41555"
         style="stroke-width:19.3184" />
      <g
         id="g41557"
         style="stroke-width:19.3184" />
      <g
         id="g41559"
         style="stroke-width:19.3184" />
      <g
         id="g41561"
         style="stroke-width:19.3184" />
      <g
         id="g41563"
         style="stroke-width:19.3184" />
      <g
         id="g41565"
         style="stroke-width:19.3184" />
      <g
         id="g41567"
         style="stroke-width:19.3184" />
      <g
         id="g41569"
         style="stroke-width:19.3184" />
      <g
         id="g41571"
         style="stroke-width:19.3184" />
      <g
         id="g41573"
         style="stroke-width:19.3184" />
      <g
         id="g41575"
         style="stroke-width:19.3184" />
      <g
         id="g41577"
         style="stroke-width:19.3184" />
      <g
         id="g41579"
         style="stroke-width:19.3184" />
      <g
         id="g41581"
         style="stroke-width:19.3184" />
      <g
         id="g41583"
         style="stroke-width:19.3184" />
      <g
         id="g41585"
         style="stroke-width:19.3184" />
    </g>
  </g>
</svg>
