<?xml version="1.0" encoding="UTF-8" standalone="no"?>
<!-- Generator: Adobe Illustrator 19.0.0, SVG Export Plug-In . SVG Version: 6.00 Build 0)  -->

<svg
   version="1.1"
   id="Layer_1"
   x="0px"
   y="0px"
   viewBox="0 0 20 20"
   xml:space="preserve"
   sodipodi:docname="cross.svg"
   width="20"
   height="20"
   inkscape:version="1.1 (c68e22c387, 2021-05-23)"
   xmlns:inkscape="http://www.inkscape.org/namespaces/inkscape"
   xmlns:sodipodi="http://sodipodi.sourceforge.net/DTD/sodipodi-0.dtd"
   xmlns="http://www.w3.org/2000/svg"
   xmlns:svg="http://www.w3.org/2000/svg"><defs
   id="defs45">
	

		
	
			
			
		</defs><sodipodi:namedview
   id="namedview43"
   pagecolor="#ffffff"
   bordercolor="#666666"
   borderopacity="1.0"
   inkscape:pageshadow="2"
   inkscape:pageopacity="0.0"
   inkscape:pagecheckerboard="0"
   showgrid="false"
   inkscape:zoom="10.518213"
   inkscape:cx="5.3716349"
   inkscape:cy="15.829685"
   inkscape:window-width="1366"
   inkscape:window-height="745"
   inkscape:window-x="-8"
   inkscape:window-y="-8"
   inkscape:window-maximized="1"
   inkscape:current-layer="Layer_1" />

<g
   id="g12">
</g>
<g
   id="g14">
</g>
<g
   id="g16">
</g>
<g
   id="g18">
</g>
<g
   id="g20">
</g>
<g
   id="g22">
</g>
<g
   id="g24">
</g>
<g
   id="g26">
</g>
<g
   id="g28">
</g>
<g
   id="g30">
</g>
<g
   id="g32">
</g>
<g
   id="g34">
</g>
<g
   id="g36">
</g>
<g
   id="g38">
</g>
<g
   id="g40">
</g>
<path
   id="path2"
   style="fill:#ff3535;fill-opacity:1;stroke-width:1;opacity:1"
   d="M 10.000719,0 C 7.4413426,9.7714213e-6 4.8824025,0.9769932 2.9299812,2.9298638 c -3.90562392,3.9056239 -3.90578018,10.2366332 0,14.1414762 3.9046865,3.905624 10.2358138,3.905702 14.1414758,0 3.905663,-3.904764 3.905663,-10.2357741 0,-14.1414762 C 15.118625,0.97703229 12.560096,-9.7714213e-6 10.000719,0 Z M 9.6003042,1.6765332 C 9.3339574,1.689254 9.0687231,1.7148747 8.804358,1.7530353 9.0687306,1.7148939 9.333954,1.6892473 9.6003042,1.6765332 Z m 0.8268728,0.00163 c 0.257122,0.013122 0.514651,0.03805 0.769903,0.074874 -0.255728,-0.036915 -0.512283,-0.061765 -0.769903,-0.074874 z M 8.4088267,1.819771 C 8.1461929,1.8706491 7.8852203,1.9339005 7.6275295,2.0102121 7.8852316,1.9339285 8.1461838,1.8706266 8.4088267,1.819771 Z m 3.1837853,0 c 0.262654,0.050856 0.523577,0.1141575 0.781297,0.1904411 C 12.116233,1.9339009 11.855231,1.8706491 11.592612,1.819771 Z M 5.0736649,3.2781921 C 4.7363907,3.526141 4.4134984,3.8031858 4.1084375,4.1083201 4.4134985,3.8031859 4.7363795,3.5261136 5.0736649,3.2781921 Z m 9.8541081,0 C 15.265115,3.5261136 15.58787,3.8031859 15.893,4.1083201 15.58787,3.8031858 15.265073,3.526141 14.927773,3.2781921 Z M 3.8121958,4.4192112 C 3.6214889,4.6302795 3.4435893,4.8486638 3.2783095,5.0735475 3.4435884,4.8486528 3.6214891,4.6302834 3.8121958,4.4192112 Z M 2.0103295,7.6290398 C 1.9341957,7.8862243 1.8706948,8.1466097 1.8198884,8.4087093 1.8706437,8.1465658 1.9342454,7.8862693 2.0103295,7.6290398 Z m 15.9807795,0 c 0.07609,0.2572287 0.139684,0.5175276 0.190441,0.7796695 C 18.13075,8.1466086 18.067239,7.8862257 17.991109,7.6290398 Z M 1.7531526,8.8042406 c -0.038143,0.2643509 -0.063787,0.531252 -0.076502,0.7975738 0.012712,-0.2663535 0.038361,-0.5331921 0.076502,-0.7975738 z m 16.4951324,0 c 0.03814,0.2643801 0.06379,0.5312228 0.07651,0.7975738 -0.01271,-0.2663243 -0.03836,-0.5332204 -0.07651,-0.7975738 z M 1.6766506,10.401017 c 0.012712,0.266319 0.038361,0.531603 0.076502,0.795946 -0.038143,-0.264374 -0.063787,-0.529595 -0.076502,-0.795946 z m 16.6481374,0 c -0.01271,0.266347 -0.03836,0.531576 -0.07651,0.795946 0.03814,-0.264343 0.06379,-0.529625 0.07651,-0.795946 z M 1.8198884,11.592494 c 0.050855,0.262615 0.1141583,0.52362 0.1904411,0.781297 -0.076285,-0.257704 -0.1395841,-0.518652 -0.1904411,-0.781297 z m 16.3616616,0 c -0.05085,0.26264 -0.11416,0.523598 -0.190441,0.781297 0.07628,-0.257675 0.139585,-0.518682 0.190441,-0.781297 z M 3.2783095,14.927656 c 0.1652822,0.22485 0.3431754,0.443307 0.5338863,0.654337 C 3.6214846,15.370959 3.4435925,15.152517 3.2783095,14.927656 Z m 13.4448195,0 c -0.165275,0.224852 -0.343184,0.443312 -0.533887,0.654337 0.190703,-0.211021 0.368611,-0.429494 0.533887,-0.654337 z m -9.0955995,3.063336 c 0.257675,0.07629 0.5186832,0.139583 0.7812972,0.19044 -0.2626416,-0.05085 -0.5235969,-0.114161 -0.7812972,-0.19044 z m 4.7447515,0 c -0.25723,0.07609 -0.517525,0.139682 -0.779669,0.19044 0.262628,-0.05085 0.521974,-0.114159 0.779669,-0.19044 z m -3.567923,0.257176 c 0.2643426,0.03814 0.529626,0.06379 0.7959462,0.07651 -0.2663493,-0.01271 -0.5315744,-0.03836 -0.7959462,-0.07651 z m 2.392722,0 c -0.264381,0.03814 -0.53122,0.06379 -0.797574,0.07651 0.266324,-0.01271 0.533221,-0.03836 0.797574,-0.07651 z" /><path
   d="m 14.125649,5.8756636 c -0.32545,-0.3254492 -0.853137,-0.3254492 -1.178586,0 L 10.000597,8.8221283 7.0541326,5.8756636 c -0.3254492,-0.3254492 -0.8531369,-0.3254492 -1.1785861,0 -0.3254491,0.3254491 -0.3254491,0.8531369 0,1.178586 l 2.9464651,2.9464654 -2.9453713,2.945371 c -0.325449,0.325449 -0.325449,0.853137 0,1.178586 0.3254492,0.325449 0.853137,0.325449 1.1785861,0 l 2.9453706,-2.945371 2.946231,2.946231 c 0.32545,0.325448 0.853137,0.325448 1.178587,0 0.325449,-0.32545 0.325449,-0.853138 0,-1.178586 l -2.946232,-2.946231 2.946466,-2.9464654 c 0.325449,-0.3254491 0.325449,-0.8530979 0,-1.178586 z"
   id="path4"
   style="fill:#ffffff;stroke-width:1" /></svg>
