<?xml version="1.0" encoding="UTF-8" standalone="no"?>
<svg
   width="24"
   height="24"
   fill="none"
   version="1.1"
   id="svg6"
   sodipodi:docname="Delete.svg"
   inkscape:version="1.1 (c68e22c387, 2021-05-23)"
   xmlns:inkscape="http://www.inkscape.org/namespaces/inkscape"
   xmlns:sodipodi="http://sodipodi.sourceforge.net/DTD/sodipodi-0.dtd"
   xmlns="http://www.w3.org/2000/svg"
   xmlns:svg="http://www.w3.org/2000/svg">
  <defs
     id="defs10" />
  <sodipodi:namedview
     id="namedview8"
     pagecolor="#ffffff"
     bordercolor="#666666"
     borderopacity="1.0"
     inkscape:pageshadow="2"
     inkscape:pageopacity="0.0"
     inkscape:pagecheckerboard="0"
     showgrid="false"
     inkscape:zoom="14.024284"
     inkscape:cx="8.5922387"
     inkscape:cy="14.082715"
     inkscape:window-width="1366"
     inkscape:window-height="745"
     inkscape:window-x="-8"
     inkscape:window-y="-8"
     inkscape:window-maximized="1"
     inkscape:current-layer="svg6" />
  <path
     opacity=".4"
     d="M19.643 9.488c0 .068-.533 6.81-.837 9.646-.19 1.741-1.313 2.797-2.997 2.827-1.293.029-2.56.039-3.805.039-1.323 0-2.616-.01-3.872-.039-1.627-.039-2.75-1.116-2.931-2.827-.313-2.847-.836-9.578-.846-9.646a.794.794 0 01.19-.558.71.71 0 01.524-.234h13.87c.2 0 .38.088.523.234.134.158.2.353.181.558z"
     fill="#fff"
     fill-opacity=".5"
     id="path2"
     style="fill:#a80000;fill-opacity:1;opacity:1" />
  <path
     d="M21 5.977a.722.722 0 00-.713-.733h-2.916a1.281 1.281 0 01-1.24-1.017l-.164-.73C15.738 2.618 14.95 2 14.065 2H9.936c-.895 0-1.675.617-1.913 1.546l-.152.682A1.283 1.283 0 016.63 5.244H3.714A.722.722 0 003 5.977v.38c0 .4.324.733.714.733h16.573A.729.729 0 0021 6.357v-.38z"
     fill="#fff"
     fill-opacity=".5"
     id="path4"
     style="fill:#a80000;fill-opacity:1" />
</svg>
